<svg xmlns="http://www.w3.org/2000/svg" viewBox="0 0 16 16">
  <path d="M9 1C6.246094 1 4 3.246094 4 6C4 6.398438 4.089844 6.757813 4.179688 7.113281L1 10.292969L1 14L5 14L5 13L6 13L6 12L6.707031 12L7.886719 10.820313C8.242188 10.910156 8.601563 11 9 11C11.753906 11 14 8.753906 14 6C14 3.246094 11.753906 1 9 1 Z M 9 2C11.214844 2 13 3.785156 13 6C13 8.214844 11.214844 10 9 10C8.613281 10 8.234375 9.925781 7.851563 9.8125L7.570313 9.726563L6.292969 11L5 11L5 12L4 12L4 13L2 13L2 10.707031L5.273438 7.429688L5.1875 7.148438C5.074219 6.765625 5 6.386719 5 6C5 3.785156 6.785156 2 9 2 Z M 10 4C9.449219 4 9 4.449219 9 5C9 5.550781 9.449219 6 10 6C10.550781 6 11 5.550781 11 5C11 4.449219 10.550781 4 10 4Z" fill="#FFFFFF" />
</svg>